<svg
   width="48"
   height="48"
   viewBox="0 0 12.7 12.7"
   version="1.1"
   xmlns="http://www.w3.org/2000/svg">
  <g>
    <g transform="scale(0.25)">
      <path
         style="fill:#00ffff;stroke-width:0.00657436;paint-order:stroke fill markers"
         d="m 92.225104,53.447249 c -0.407085,-0.02007 -0.681963,-0.08592 -0.729512,-0.174768 -0.06327,-0.118225 0.13119,-0.350288 0.624323,-0.745042 0.670415,-0.53667 3.640481,-2.605131 4.377094,-3.048366 0.190249,-0.114477 0.39241,-0.215381 0.441868,-0.220548 0.114248,-0.01194 -0.05061,0.232568 -0.582815,0.864386 -0.687548,0.816235 -0.893097,1.076717 -1.120589,1.420062 -0.324223,0.489336 -0.534167,0.932036 -0.571576,1.205255 -0.01908,0.139326 -0.0095,0.197663 0.04684,0.286515 0.02502,0.03944 0.0455,0.08114 0.0455,0.09266 0,0.03325 -0.09199,0.113935 -0.170934,0.149928 -0.162573,0.07412 -0.483911,0.135044 -0.873012,0.165507 -0.14848,0.01162 -1.273218,0.01496 -1.487183,0.0044 z"
         transform="scale(0.26458333)" />
      <circle
         style="fill:#1b1717;fill-opacity:1;stroke-width:0.129584;paint-order:stroke fill markers"
         cx="25.4"
         cy="25.4"
         r="25.4" />
      <g
         transform="matrix(1.5838349,0,0,1.5857907,-38.565146,3.6284602)"
         style="fill:#1fb854;fill-opacity:1">
         <path
            style="fill:#1fb854;fill-opacity:1;stroke-width:0.0139157;paint-order:stroke fill markers"
            d="m 25.236318,12.594116 c 0.146971,-1.481778 0.347673,-2.471854 0.742331,-3.6619697 0.09909,-0.298826 0.124947,-0.3491622 0.214155,-0.416963 0.239042,-0.1816798 0.288776,-0.296682 0.144777,-0.3347722 l -0.08192,-0.021669 0.166459,-0.3896402 c 0.25526,-0.5975049 0.673242,-1.4080099 0.996142,-1.9316126 0.0191,-0.030972 0.05839,-0.012682 0.18951,0.088209 0.342758,0.263746 0.779813,0.4652862 1.399546,0.6453754 0.493448,0.143392 0.662933,0.1718069 0.714885,0.1198541 0.03219,-0.032193 0.03543,-0.055721 0.01336,-0.096973 C 29.695578,6.5192495 29.371179,6.3011019 28.938247,6.0577881 28.739252,5.9459503 28.501293,5.803968 28.409449,5.7422717 28.217479,5.6133151 27.838904,5.2576958 27.838904,5.2063227 c 0,-0.065721 0.904871,-1.260171 1.038969,-1.3714624 0.03375,-0.02801 0.03763,-0.014044 0.02563,0.092377 -0.01715,0.1522013 0.02585,0.1808361 0.169349,0.112744 0.325869,-0.154635 0.988812,-1.008656 1.147633,-1.4784126 0.04883,-0.144422 0.08004,-0.1812306 0.345902,-0.4078891 0.791326,-0.6746478 1.7102,-1.29825141 2.686044,-1.8229143 l 0.362119,-0.19469314 0.227282,0.0583927 c 0.172063,0.0442057 0.246368,0.0517076 0.305836,0.030877 0.104885,-0.0367388 0.113087,-0.12286411 0.02201,-0.23110264 l -0.07333,-0.08714168 0.06493,-0.02511266 c 0.03571,-0.013812 0.17139,-0.0709317 0.301502,-0.12693253 0.130112,-0.0560008 0.25935,-0.11079382 0.287196,-0.12176218 0.03288,-0.0129519 0.120685,0.0139113 0.250483,0.0766348 0.132205,0.0638862 0.252823,0.10045242 0.356334,0.10802527 0.248942,0.0182123 0.250228,-0.068777 0.0036,-0.24536442 l -0.153364,-0.10982264 0.08012,-0.0315104 c 0.379499,-0.14924498 0.465842,-0.16725741 0.711551,-0.14843913 0.132982,0.0101849 0.273878,0.0104629 0.313104,6.1912e-4 0.08484,-0.0212934 0.09416,-0.0893321 0.01565,-0.1142493 -0.03061,-0.009717 -0.05566,-0.0276784 -0.05566,-0.0399148 0,-0.0247309 0.77068,-0.21715617 1.224584,-0.30575697 2.218583,-0.4330615 4.538302,-0.3580657 6.745947,0.21809427 0.539636,0.14083651 0.623443,0.17549397 0.378905,0.15669135 -0.48436,-0.0372424 -2.05157,-0.047407 -2.741398,-0.01778 -2.521451,0.10829198 -3.791158,0.50638773 -5.572994,1.74732086 C 35.782409,1.2930686 35.396626,1.615398 34.948312,2.0629132 34.264526,2.7454813 33.79432,3.3408139 32.221972,5.5147546 30.85259,7.4080724 30.641815,7.6795482 30.190628,8.1310961 29.629471,8.6927034 29.071635,9.029705 28.005853,9.4509703 c -0.818625,0.323573 -0.920183,0.4075391 -0.48705,0.4026816 0.481576,-0.0054 1.517889,-0.3084952 1.999691,-0.584858 0.583238,-0.3345463 0.900816,-0.5886868 1.77147,-1.4176105 0.600584,-0.5717971 0.922643,-0.8465275 0.993099,-0.8471538 0.03703,-3.175e-4 0.04428,0.019545 0.105494,0.2890703 0.09181,0.4042502 0.346052,0.7289329 0.955841,1.2206496 0.188558,0.1520481 0.350041,0.2952345 0.358851,0.3181924 0.01888,0.049209 -0.690708,0.7752802 -0.952134,0.9742474 C 32.438117,10.044407 32.150592,10.129102 31.901509,10.056454 31.699703,9.997594 31.558308,9.8725445 31.350507,9.5691465 31.06673,9.1548212 30.869213,9.0333973 30.850147,9.2615504 c -0.01195,0.1429713 0.07453,0.3673414 0.297679,0.7723176 0.225116,0.408551 0.273432,0.553923 0.219908,0.661652 -0.09727,0.195768 -1.389279,0.794555 -2.944409,1.364595 -0.886516,0.324956 -1.16231,0.39089 -2.073443,0.495694 -0.403319,0.04639 -1.009125,0.141863 -1.085045,0.170996 -0.037,0.0142 -0.0412,-0.0053 -0.02856,-0.132688 z m 5.172103,-1.801934 c 0.297907,-0.13659 0.410398,-0.299609 0.255458,-0.370204 -0.05207,-0.02372 -0.09639,-0.02361 -0.176735,4.76e-4 -0.134102,0.04018 -0.477386,0.34799 -0.477386,0.428057 0,0.0508 0.0119,0.05485 0.113391,0.03862 0.06236,-0.01 0.190737,-0.05359 0.285272,-0.09694 z m 1.772966,-1.0233185 c 0.232741,-0.086269 0.397797,-0.2243425 0.384058,-0.3212742 -0.0076,-0.05379 -0.02813,-0.065646 -0.125828,-0.072745 -0.06671,-0.00485 -0.15214,0.00983 -0.199387,0.034268 -0.127064,0.065707 -0.365765,0.3110635 -0.365765,0.3759631 0,0.077418 0.06335,0.074072 0.306922,-0.016212 z M 30.295031,5.8907202 c 0.0574,-1.392e-4 0.104367,-0.011404 0.104367,-0.025043 0,-0.029516 -0.447127,-0.228896 -0.731162,-0.3260352 -0.254016,-0.086874 -0.400363,-0.1203039 -0.650853,-0.1486757 -0.394442,-0.044677 -0.448128,0.0293 -0.159144,0.2192962 0.324835,0.2135664 0.779274,0.3246805 1.193266,0.2917643 0.07654,-0.00609 0.186123,-0.011173 0.243526,-0.011307 z m 0.327578,-1.3646349 c 0.271937,-0.073563 0.895689,-0.3841774 1.06472,-0.5302064 0.149842,-0.1294514 0.225752,-0.2540937 0.201427,-0.3307366 -0.03919,-0.1234776 -0.152605,-0.092487 -0.501341,0.1369891 -0.122458,0.080581 -0.439151,0.2519915 -0.703762,0.3809126 -0.471303,0.2296248 -0.609092,0.3187645 -0.575857,0.3725397 0.02793,0.045195 0.295339,0.029873 0.514813,-0.029498 z m 1.413569,-1.5768417 c 0.02492,-0.17501 -0.766314,-0.7292115 -1.05992,-0.7423986 -0.0792,-0.00356 -0.09088,0.00533 -0.09888,0.075248 -0.0073,0.063599 0.01572,0.1030353 0.116245,0.1993572 0.214465,0.2054931 0.5113,0.3914052 0.783432,0.490675 0.173488,0.063286 0.247789,0.056725 0.259123,-0.022882 z m 1.291924,-1.1975492 c 0.373461,-0.1940404 0.586878,-0.3796622 0.573287,-0.4986226 -0.0077,-0.067195 -0.02332,-0.081398 -0.09755,-0.088593 -0.05109,-0.00495 -0.139192,0.017119 -0.208736,0.052293 -0.124797,0.063119 -0.690877,0.605351 -0.690877,0.6617705 0,0.065532 0.126423,0.027699 0.423873,-0.1268479 z"
            />
         <path
            style="fill:#1fb854;fill-opacity:1;stroke-width:0.00491995;paint-order:stroke fill markers"
            d="m 33.972956,8.0994467 c -0.240804,-0.078048 -0.5744,-0.3472982 -0.879148,-0.7095739 -0.247817,-0.2945979 -0.35525,-0.5278244 -0.367572,-0.7979621 -0.01179,-0.2584138 0.05283,-0.4957014 0.233319,-0.8567989 0.249789,-0.4997431 0.848378,-1.3525637 1.469921,-2.0942223 1.026155,-1.2244644 2.246301,-2.3214377 2.709633,-2.4360981 0.06683,-0.016539 0.09378,-0.012758 0.127244,0.017849 0.04289,0.039235 0.03816,0.1148308 -0.01866,0.2977504 -0.09774,0.3146772 -0.02067,0.7775038 0.220387,1.323467 0.189158,0.4284229 0.450165,0.7776716 0.703398,0.9412028 0.194226,0.1254263 0.308151,0.2306051 0.308151,0.2844925 0,0.026442 -0.04004,0.060506 -0.423116,0.359987 C 36.53826,5.6164721 36.187074,5.8490954 35.98037,5.8047655 35.896459,5.7867712 35.820631,5.7105696 35.683684,5.5066245 35.45666,5.1685336 35.346499,4.7872762 35.31092,4.2165242 35.29903,4.0257945 35.278508,3.8813548 35.250111,3.78855 35.222081,3.696929 35.167371,3.5974 35.123021,3.5573341 c -0.03329,-0.030072 -0.04476,-0.034523 -0.08898,-0.034523 -0.148854,0 -0.24249,0.1615133 -0.264025,0.4554162 -0.01077,0.1469945 0.0012,0.4261622 0.02467,0.5728538 0.06284,0.3936082 0.202782,0.8044215 0.354073,1.0393908 0.05255,0.081612 0.09063,0.1284044 0.245524,0.3017075 0.21175,0.236909 0.261934,0.3198604 0.269007,0.4446495 0.0084,0.1484604 -0.06574,0.2910105 -0.398468,0.7659746 -0.228741,0.3265254 -0.367711,0.5020008 -0.534193,0.6745181 -0.181329,0.1879018 -0.328057,0.2881733 -0.476843,0.3258669 -0.07943,0.020122 -0.212681,0.018346 -0.28083,-0.00374 z m 0.189128,-0.3459144 c 0.0725,-0.020137 0.08528,-0.079686 0.0358,-0.1668412 -0.07162,-0.1261353 -0.808767,-0.808696 -0.941289,-0.8715817 -0.04973,-0.023601 -0.06031,-0.00748 -0.0378,0.057582 0.02343,0.067734 0.169115,0.3586335 0.239447,0.4781378 0.132159,0.2245566 0.294324,0.4110225 0.421241,0.4843645 0.04527,0.026162 0.05705,0.028434 0.147598,0.028469 0.05412,1.98e-5 0.114873,-0.00454 0.135009,-0.010131 z m 2.146285,-2.4895865 c 0.109877,-0.086429 -0.0083,-0.3575902 -0.245754,-0.5640001 -0.08578,-0.074556 -0.130984,-0.1008319 -0.156579,-0.091011 -0.02464,0.00945 -0.01448,0.086828 0.02806,0.2138857 0.07294,0.2178561 0.166522,0.3791868 0.251037,0.4327848 0.05312,0.033687 0.08801,0.036049 0.123238,0.00834 z"
            />
         <path
            style="fill:#1fb854;fill-opacity:1;stroke-width:0.00983991;paint-order:stroke fill markers"
            d="M 54.031599,10.818512 C 53.84293,10.753527 53.378785,10.516201 53.155077,10.370331 52.561574,9.9833321 52.116711,9.5130781 51.893493,9.0367422 51.75446,8.7400538 51.731796,8.5101488 51.821053,8.3019183 c 0.0209,-0.048775 0.149156,-0.2951848 0.284996,-0.5475769 0.276272,-0.5133194 0.37851,-0.7396572 0.394377,-0.873103 0.0088,-0.074236 0.0046,-0.092831 -0.02371,-0.103686 -0.05298,-0.020331 -0.183993,0.067144 -0.325874,0.2175814 -0.09666,0.1024919 -0.542738,0.6365179 -0.837223,1.0022943 -0.01202,0.014925 -0.02649,0.027139 -0.03217,0.027139 -0.03015,0 -0.935721,-1.5672141 -1.108846,-1.9190179 C 50.055715,5.8680176 49.996736,5.6449693 50.0162,5.514049 c 0.01454,-0.097836 0.08642,-0.2523011 0.246224,-0.5291497 0.159584,-0.276469 0.220557,-0.4395266 0.212984,-0.5695704 -0.0052,-0.089699 -0.011,-0.101133 -0.05418,-0.1072258 C 50.27659,4.2876961 50.070023,4.4495935 49.808564,4.7882834 49.552328,5.1202085 49.445984,5.1909568 49.26445,5.1502739 49.035469,5.0989588 48.736132,4.8692909 48.63955,4.6708177 48.612771,4.6157862 48.576393,4.4999133 48.558711,4.413322 48.504027,4.145524 48.46177,4.0981821 48.208444,4.0209132 48.001933,3.9579236 47.833669,3.8486798 47.634255,3.6481285 47.375678,3.3880762 47.253291,3.1718843 47.252379,2.9735577 47.251717,2.8278784 47.402734,2.5356173 47.639625,2.224167 c 0.270014,-0.3549981 0.325601,-0.4753155 0.248978,-0.5389065 -0.04625,-0.038386 -0.189598,-0.027627 -0.291929,0.02191 -0.203261,0.098397 -0.381206,0.287388 -0.509731,0.5413716 -0.09255,0.1828829 -0.124265,0.3310009 -0.159033,0.7426092 -0.03282,0.3884914 -0.04654,0.4414825 -0.119027,0.4596763 -0.115625,0.02902 -0.398851,-0.053348 -0.575065,-0.1672408 -0.195722,-0.126501 -0.297551,-0.2887033 -0.340923,-0.5430493 -0.02666,-0.156328 -0.0476,-0.206638 -0.08602,-0.206638 -0.01469,0 -0.07677,0.054072 -0.137956,0.120161 l -0.111248,0.1201613 -0.299227,-0.00798 C 44.998909,2.7593259 44.94553,2.7522113 44.856059,2.7126105 44.73119,2.6573417 44.623077,2.5430513 44.599637,2.4415359 c -0.0095,-0.041203 -0.0515,-0.2121656 -0.0933,-0.3799173 -0.09145,-0.3669699 -0.09293,-0.4393112 -0.01264,-0.616377 0.07783,-0.1716593 0.185088,-0.3241353 0.445791,-0.63372615 0.278607,-0.3308513 0.367755,-0.46948421 0.360125,-0.56002909 -0.0049,-0.0587475 -0.01388,-0.0702519 -0.05852,-0.0754114 -0.136892,-0.0158205 -0.641382,0.27483948 -0.899252,0.51810112 -0.288522,0.27217706 -0.329606,0.52567412 -0.218424,1.34772922 0.02269,0.1677702 0.03625,0.3440837 0.03012,0.3918074 -0.01472,0.1146712 -0.09019,0.2117061 -0.183762,0.2362671 -0.204778,0.05375 -0.50134,0.041661 -0.71627,-0.029199 -0.135171,-0.044565 -0.246722,-0.1724869 -0.264002,-0.3027479 -0.0073,-0.055117 -0.02183,-0.1054869 -0.03226,-0.1119325 -0.03757,-0.023217 -0.116007,0.041885 -0.241951,0.2008132 -0.07053,0.089004 -0.141354,0.1727084 -0.157381,0.18601 -0.05912,0.049062 -0.114455,-0.025641 -0.314511,-0.4245774 -0.154347,-0.307786 -0.205809,-0.3937243 -0.238573,-0.3983992 -0.05263,-0.00751 -0.05999,0.012192 -0.09701,0.2594393 -0.03849,0.2570464 -0.06302,0.3461374 -0.09913,0.3599955 -0.04315,0.016558 -0.0947,-0.039636 -0.16208,-0.1766901 C 41.512911,1.9607782 41.449123,1.6251524 41.406486,0.96935562 41.367028,0.36244747 41.297132,0.15719547 41.145503,0.20296376 c -0.198048,0.0597791 -0.30696,0.4226779 -0.283163,0.94351014 0.02408,0.5271584 0.118833,0.8248279 0.432393,1.3584684 0.174917,0.2976888 0.163872,0.3578793 -0.08796,0.479321 -0.167106,0.080585 -0.667647,0.2404792 -1.0396,0.3320936 -0.190671,0.046964 -0.242118,0.051048 -0.665829,0.052865 -0.521509,0.00222 -0.47612,-0.014139 -0.523477,0.1888633 -0.01585,0.067928 -0.03981,0.1303067 -0.05326,0.1386181 -0.04185,0.025863 -0.122489,-0.032345 -0.290064,-0.2093762 C 38.430817,3.2721056 38.200904,2.9256978 38.014784,2.5535417 37.812049,2.1481633 37.74534,1.9452562 37.732278,1.6942439 c -0.01272,-0.2444137 0.02109,-0.4945576 0.08321,-0.6156356 0.124185,-0.24204324 0.579117,-0.5371389 1.303757,-0.84569347 0.652085,-0.27765991 1.139988,-0.39223875 1.933518,-0.45406653 0.456681,-0.0355822 1.586565,-0.0454534 2.519015,-0.0220073 0.971266,0.0244221 1.170381,0.0376226 1.691542,0.11214192 1.810336,0.2588541 3.007637,0.78671097 4.389321,1.93512938 0.879462,0.7309848 1.724186,1.612573 3.143244,3.2804171 0.436425,0.5129389 0.515935,0.6249058 0.802066,1.1294951 0.288086,0.5080333 0.406977,0.7437477 0.382704,0.7587496 -0.03634,0.022458 -0.0096,0.1664512 0.05687,0.3056032 0.03346,0.070108 0.143881,0.2600397 0.24538,0.4220697 0.130755,0.2087317 0.213895,0.3691702 0.285242,0.5504377 0.12755,0.3240627 0.317701,0.8843432 0.419656,1.2365217 0.07732,0.2671008 0.07844,0.2754133 0.05944,0.4427956 -0.04858,0.427958 -0.224768,0.714011 -0.532516,0.864578 -0.145431,0.07115 -0.320487,0.07975 -0.483129,0.02373 z m -3.44594,-4.7289294 c 0.03472,-0.046668 0.04122,-0.082898 0.04062,-0.2263177 -0.0013,-0.3077491 -0.106281,-0.4877316 -0.200548,-0.3437938 -0.04844,0.073959 -0.04827,0.4522576 2.5e-4,0.5631371 0.03959,0.090481 0.09573,0.092933 0.15968,0.00697 z M 39.669185,3.180143 c 0.06772,-0.056203 0.01022,-0.2013476 -0.13711,-0.3460662 -0.139276,-0.1368118 -0.30553,-0.2325963 -0.46777,-0.2694969 -0.154924,-0.035237 -0.442881,-0.040557 -0.524353,-0.00969 -0.385127,0.1459209 0.04754,0.5715704 0.659177,0.6484792 0.158674,0.019952 0.434448,0.00633 0.470056,-0.023228 z"
            />
         <path
            style="fill:#1fb854;fill-opacity:1;stroke-width:0.00983991;paint-order:stroke fill markers"
            d="m 41.092126,14.308169 c -0.04871,-0.0039 -0.231357,-0.02438 -0.405889,-0.04555 -1.576422,-0.1912 -3.086595,-0.751998 -4.474703,-1.661669 -0.537734,-0.352394 -0.909917,-0.636995 -1.544865,-1.181331 -0.572573,-0.490862 -0.840343,-0.740727 -0.831215,-0.775632 0.0118,-0.04512 0.311225,-0.507177 1.013004,-1.5632143 0.954573,-1.436443 1.383149,-1.9803996 2.228987,-2.8290742 0.550019,-0.5518631 0.750926,-0.7311358 1.182329,-1.0550146 1.146461,-0.8607132 2.49876,-1.4291215 3.895062,-1.6372017 0.827357,-0.1232948 1.714322,-0.1164429 2.535497,0.019587 0.936157,0.1550768 1.972669,0.5520134 2.776862,1.0634114 1.606103,1.0213435 2.767833,2.5504963 3.406708,4.4841528 0.157974,0.478134 0.18364,0.5942237 0.18491,0.8363918 0.0011,0.2055678 -0.002,0.2224348 -0.06069,0.3346878 -0.09614,0.183818 -0.231154,0.351222 -0.508889,0.630968 -0.606615,0.611005 -1.399299,1.133417 -2.725654,1.79632 -1.983174,0.991177 -3.503489,1.453445 -5.185629,1.576746 -0.253027,0.01855 -1.278136,0.02298 -1.485826,0.0064 z m -0.0845,-0.503773 c 0.04093,-0.0257 0.0064,-0.06757 -0.08911,-0.108206 -0.05064,-0.02154 -0.220482,-0.08333 -0.377428,-0.137331 -0.422776,-0.145453 -0.717535,-0.265128 -1.10207,-0.447453 -0.498533,-0.236377 -0.687779,-0.291308 -0.704233,-0.204415 -0.0085,0.04494 0.134996,0.178576 0.340157,0.31677 0.360432,0.24278 1.052821,0.534442 1.387426,0.584438 0.144045,0.02152 0.508973,0.01898 0.545256,-0.0038 z m 3.311817,-1.666511 c 0.05917,-0.08309 0.167262,-0.322545 0.223819,-0.495802 0.09378,-0.287279 0.17748,-0.805967 0.232846,-1.442897 0.04046,-0.4655012 0.03391,-2.1461382 -0.01013,-2.5977351 -0.08437,-0.8651788 -0.184988,-1.3370526 -0.35878,-1.6826235 -0.145847,-0.2900037 -0.242327,-0.280742 -0.287142,0.027565 -0.0096,0.066019 -0.02778,0.9790576 -0.04041,2.0289755 -0.01775,1.4754 -0.0176,2.1301821 6.88e-4,2.8830921 0.02288,0.942659 0.03779,1.169797 0.08429,1.284108 0.03019,0.0742 0.100165,0.07209 0.15483,-0.0047 z m 4.65642,-1.256312 c 0.110044,-0.07972 0.251988,-0.243572 0.300616,-0.347025 0.04584,-0.09751 0.05535,-0.24507 0.01819,-0.282227 -0.108506,-0.108506 -0.331763,0.160486 -0.420419,0.506546 -0.03046,0.118879 -0.02795,0.178312 0.0075,0.178312 0.0095,0 0.05189,-0.02502 0.09411,-0.05561 z m 0.763782,-0.29973 c 0.188856,-0.165818 0.438232,-0.7359854 0.384134,-0.8782744 -0.0269,-0.07076 -0.09308,-0.056732 -0.185019,0.03922 -0.146018,0.1523923 -0.340801,0.5890664 -0.348317,0.7808714 -0.0053,0.134293 0.04167,0.152595 0.149202,0.05818 z M 37.454213,6.739544 c 0.07961,-0.057329 0.317673,-0.2368389 0.529026,-0.3989107 0.643177,-0.4932077 1.037498,-0.7459845 1.603879,-1.0281553 1.094946,-0.5455023 2.195497,-0.8527486 3.401384,-0.9495816 0.365196,-0.029325 1.293493,-0.013076 1.59679,0.027949 0.8404,0.1136782 1.506648,0.3069783 2.124301,0.6163281 0.507576,0.254218 0.788267,0.453341 1.368865,0.9710763 0.337188,0.3006797 0.6239,0.5112917 0.696036,0.5112917 0.05406,0 0.03731,-0.086721 -0.03848,-0.1993556 C 48.542685,6.0029053 48.018908,5.4697533 47.688243,5.2236638 46.136518,4.0688316 43.771344,3.6953844 41.493914,4.2456159 c -0.605152,0.1462058 -1.073992,0.31839 -1.690815,0.6209625 -0.863197,0.4234267 -1.553783,0.8848074 -2.043754,1.3654318 -0.515153,0.5053263 -0.677839,0.775926 -0.305132,0.5075338 z"
            />
         <path
            style="fill:#1fb854;fill-opacity:1;stroke-width:0.00347893;paint-order:stroke fill markers"
            d="m 30.835295,13.164942 c -0.0759,-0.02731 -0.145656,-0.0809 -0.227813,-0.175048 -0.162612,-0.186341 -0.212019,-0.297897 -0.170197,-0.384289 0.0273,-0.05638 0.104365,-0.111096 0.230987,-0.163979 0.146346,-0.06112 0.291185,-0.08523 0.426993,-0.07107 0.223543,0.0233 0.346946,0.115876 0.35661,0.267522 0.0064,0.100819 -0.05198,0.219363 -0.161862,0.328549 -0.06958,0.06914 -0.148248,0.127996 -0.22266,0.166592 -0.08939,0.04637 -0.163278,0.05647 -0.232058,0.03172 z"
            />
         <path
            style="fill:#1fb854;fill-opacity:1;stroke-width:0.00347893;paint-order:stroke fill markers"
            d="m 32.076243,14.344805 c -0.09555,-0.02711 -0.201835,-0.09483 -0.310361,-0.197773 -0.187915,-0.178239 -0.332635,-0.381771 -0.361366,-0.508217 -0.01106,-0.04866 -0.005,-0.125563 0.01379,-0.175631 0.01984,-0.05282 0.0758,-0.131 0.137145,-0.191617 0.08603,-0.08501 0.177032,-0.119306 0.294661,-0.111042 0.08301,0.0058 0.150307,0.02603 0.247004,0.07414 0.217305,0.108121 0.393868,0.300523 0.467238,0.50915 0.0242,0.06882 0.03028,0.179747 0.01309,0.23889 -0.0254,0.08739 -0.07836,0.169833 -0.163095,0.253904 -0.0458,0.04544 -0.07265,0.06564 -0.114732,0.08634 -0.05028,0.02473 -0.06062,0.02722 -0.121763,0.02937 -0.04345,0.0015 -0.07898,-0.0011 -0.101606,-0.0075 z"
            />
         <path
            style="fill:#1fb854;fill-opacity:1;stroke-width:0.00347893;paint-order:stroke fill markers"
            d="m 33.224291,15.158779 c -0.230801,-0.04537 -0.426293,-0.2457 -0.496068,-0.508351 -0.03394,-0.127741 -0.03518,-0.234919 -0.0042,-0.357965 0.03366,-0.133553 0.09928,-0.231728 0.180181,-0.269583 0.03715,-0.01738 0.04941,-0.01951 0.111326,-0.01935 0.07684,2.06e-4 0.112867,0.0094 0.194265,0.0498 0.07946,0.0394 0.149527,0.09163 0.226709,0.168991 0.11564,0.115911 0.202849,0.259277 0.247715,0.407229 0.0166,0.05473 0.01906,0.07489 0.01956,0.160031 l 5.82e-4,0.09741 -0.0259,0.05424 c -0.07702,0.161308 -0.270022,0.25375 -0.454195,0.217549 z"
            />
         <path
            style="fill:#1fb854;fill-opacity:1;stroke-width:0.0139157;paint-order:stroke fill markers"
            d="m 52.140191,18.747692 c -0.546127,-0.143052 -1.257638,-0.541155 -2.0885,-1.168555 -0.343841,-0.25964 -0.671242,-0.544932 -0.671242,-0.584908 0,-0.100295 1.104949,-0.66817 2.40742,-1.237264 1.186598,-0.518466 2.006348,-0.821257 3.242146,-1.19755 0.52084,-0.158594 0.549439,-0.169199 0.524229,-0.194409 -0.01847,-0.01845 -1.214083,0.112611 -1.553773,0.170326 -0.837658,0.142323 -2.14965,0.597392 -4.477753,1.553123 -2.704673,1.11032 -4.278159,1.521944 -6.348683,1.660814 -0.63623,0.04267 -2.475406,0.01629 -3.033628,-0.04352 -1.512712,-0.162068 -2.829768,-0.522026 -4.263949,-1.165359 -0.868621,-0.38964 -1.330339,-0.642028 -1.56222,-0.853954 -0.219125,-0.200268 -0.264493,-0.312022 -0.312535,-0.769868 -0.02219,-0.211434 -0.05891,-0.448599 -0.08161,-0.527033 -0.05797,-0.200287 -0.195458,-0.391613 -0.383985,-0.534348 -0.230378,-0.17442 -0.260852,-0.228959 -0.217824,-0.389833 0.01895,-0.07087 0.115149,-0.299967 0.213762,-0.509096 0.09861,-0.209129 0.179298,-0.394108 0.179298,-0.411065 0,-0.06821 -0.08493,-0.01943 -0.390171,0.224098 -0.383679,0.306109 -0.618174,0.426961 -0.785028,0.404581 -0.227549,-0.03052 -0.333324,-0.174095 -0.379542,-0.515176 -0.03544,-0.261533 -0.08212,-0.333216 -0.232688,-0.357292 -0.126575,-0.02024 -0.244267,-0.115538 -0.244267,-0.197789 0,-0.138931 0.430242,-0.388553 0.808091,-0.468847 0.547264,-0.116294 0.839873,0.0093 2.092845,0.8981 0.711967,0.50505 1.199626,0.810237 1.743383,1.091041 1.013239,0.523253 2.234377,0.931125 3.383578,1.130148 1.442328,0.249788 3.206956,0.223184 4.623564,-0.0697 1.113862,-0.230295 1.915443,-0.502081 3.10599,-1.053127 0.595824,-0.275777 1.048146,-0.464795 1.33106,-0.556228 0.539706,-0.174423 1.224584,-0.254469 1.224584,-0.143125 0,0.01327 -0.08141,0.143349 -0.180904,0.289074 -0.182005,0.266567 -0.208043,0.32318 -0.148644,0.32318 0.05551,0 0.334482,-0.224752 0.554771,-0.446949 0.246121,-0.248254 0.346004,-0.426416 0.321997,-0.574352 -0.02215,-0.136499 0.02997,-0.245645 0.21066,-0.441122 0.281403,-0.304437 0.299716,-0.344224 0.299716,-0.651187 0,-0.23116 0.0098,-0.288606 0.06963,-0.40869 0.08088,-0.162312 0.357036,-0.490994 0.505605,-0.601781 0.176363,-0.131514 0.239898,-0.109789 0.809495,0.276797 0.595527,0.404185 0.753446,0.452454 1.481913,0.452952 0.38267,2.62e-4 1.077098,-0.03615 1.3247,-0.06946 l 0.11403,-0.01534 0.04557,0.28634 c 0.232206,1.458945 0.248438,3.065421 0.04536,4.488889 -0.03057,0.214302 -0.06235,0.422866 -0.07063,0.463475 l -0.01503,0.07383 -0.229045,-0.116873 c -0.375155,-0.191427 -0.701442,-0.265455 -0.733869,-0.1665 -0.01902,0.05805 0.130625,0.199489 0.418132,0.39519 0.157284,0.107062 0.324524,0.234092 0.371644,0.282287 l 0.08568,0.08763 -0.06598,0.279166 c -0.03629,0.153541 -0.06598,0.291338 -0.06598,0.306214 0,0.04465 -0.278128,0.324934 -0.500965,0.504841 -0.487119,0.393273 -1.032013,0.697491 -1.430814,0.798839 -0.295423,0.07508 -0.78165,0.07479 -1.069588,-6.35e-4 z m -1.485143,-1.252883 c 0.01077,-0.09246 -0.116441,-0.251408 -0.371074,-0.463629 -0.497474,-0.414615 -0.57444,-0.361256 -0.17332,0.12016 0.113395,0.136094 0.253475,0.288856 0.311289,0.33947 0.125184,0.109593 0.220611,0.111231 0.233105,0.004 z m -4.19483,-0.526621 c 0.489712,-0.164068 1.266959,-0.553087 1.88235,-0.942132 0.165191,-0.104432 0.588402,-0.377988 0.940471,-0.607903 0.753233,-0.491891 1.059533,-0.673176 1.155005,-0.683595 0.07861,-0.0086 0.08262,0.02195 0.04201,0.319426 -0.03928,0.287718 0.01987,0.247014 0.832184,-0.572681 0.765937,-0.7729 0.948552,-0.921568 1.46183,-1.190089 0.129114,-0.06755 0.282536,-0.167837 0.340935,-0.22287 0.09628,-0.09072 0.106182,-0.113407 0.106182,-0.24313 0,-0.134537 0.0062,-0.147177 0.104368,-0.211899 0.0574,-0.03786 0.254658,-0.120252 0.438345,-0.183103 0.376614,-0.128863 0.542714,-0.222692 0.542714,-0.306572 0,-0.06446 -0.09682,-0.110242 -0.233138,-0.110242 -0.360161,0 -1.398616,0.455561 -2.117447,0.928905 -0.169024,0.111302 -0.451346,0.321481 -0.62738,0.467065 -0.838922,0.693805 -1.549391,1.160748 -3.424049,2.250393 -1.078307,0.626765 -1.693069,0.999894 -1.8848,1.143974 -0.141874,0.106614 -0.186537,0.198375 -0.111326,0.228723 0.09555,0.03856 0.324393,0.0119 0.551743,-0.06427 z m -5.665713,-0.0028 c 0.148626,-0.148731 -0.226755,-0.25221 -0.514695,-0.141884 -0.142718,0.05468 -0.177324,0.129922 -0.07885,0.171433 0.104542,0.04407 0.541729,0.0223 0.593544,-0.02955 z m -1.341421,-0.236095 c 0.03379,-0.01311 0.04744,-0.04249 0.04175,-0.08984 -0.01713,-0.142435 -0.333661,-0.18036 -0.568931,-0.06817 -0.116257,0.05544 -0.124931,0.13766 -0.01703,0.161457 0.04209,0.0093 0.08906,0.02187 0.104368,0.02797 0.04007,0.01596 0.380399,-0.0083 0.439851,-0.03142 z m -3.131153,-0.769388 c 0.06412,-0.06412 0.03482,-0.153024 -0.08763,-0.265888 -0.20138,-0.185626 -1.284544,-0.892749 -1.317311,-0.859982 -0.05136,0.05135 0.884692,1.007045 1.076525,1.099114 0.138781,0.06661 0.277277,0.07789 0.328411,0.02676 z m 6.545958,-0.07871 c 1.52351,-0.07884 2.724729,-0.363921 2.898061,-0.687794 0.08907,-0.166425 -0.149551,-0.169773 -0.824618,-0.01157 -0.672182,0.157523 -0.979311,0.200216 -1.631028,0.226719 -1.32995,0.05409 -2.659663,-0.07516 -3.907431,-0.379783 -0.498158,-0.121619 -0.852834,-0.226101 -1.934286,-0.569812 -1.152478,-0.366284 -1.086524,-0.346262 -1.405488,-0.426672 -0.350958,-0.08848 -0.48705,-0.09272 -0.48705,-0.01518 0,0.144877 0.773815,0.547959 1.968418,1.025352 1.00425,0.401323 1.664571,0.602746 2.331541,0.711208 0.866495,0.140909 1.890186,0.184546 2.991881,0.127537 z m 11.975703,-3.18501 c 0.210188,-0.0731 0.473858,-0.233595 0.517393,-0.314943 0.01609,-0.03006 0.01714,-0.06702 0.0026,-0.0906 -0.05058,-0.08183 -0.728461,0.109577 -1.049972,0.296472 -0.11743,0.06826 -0.156173,0.155909 -0.08349,0.188883 0.07027,0.03188 0.425043,-0.01427 0.613514,-0.07982 z"
            />
         <path
            style="fill:#1fb854;fill-opacity:1;stroke-width:0.00347893;paint-order:stroke fill markers"
            d="m 25.528399,14.880077 c -0.06295,-0.01863 -0.157349,-0.05881 -0.2479,-0.105533 -0.05944,-0.03067 -0.0606,-0.03176 -0.06421,-0.06028 -0.01054,-0.08334 -0.03158,-0.6479 -0.03172,-0.851479 l -8.6e-5,-0.119689 0.02957,-0.02027 c 0.173053,-0.118634 0.560191,-0.218081 1.40027,-0.359699 0.643401,-0.108463 1.141174,-0.170132 1.374588,-0.170297 0.143209,-1.02e-4 0.150506,0.0078 0.0749,0.08104 -0.08679,0.08408 -0.286971,0.213609 -0.551924,0.357125 -0.357634,0.193719 -0.522931,0.297286 -0.772322,0.4839 -0.175594,0.131393 -0.270175,0.214251 -0.402911,0.352972 -0.185199,0.19355 -0.294252,0.280644 -0.445949,0.356151 -0.153069,0.07619 -0.245777,0.09054 -0.362304,0.05606 z"
            />
         <path
            style="fill:#1fb854;fill-opacity:1;stroke-width:0.00347893;paint-order:stroke fill markers"
            d="m 25.619949,17.355073 c -0.0732,-0.301877 -0.14368,-0.635274 -0.19814,-0.937348 -0.04936,-0.273792 -0.123397,-0.773769 -0.115716,-0.781451 0.005,-0.005 0.206697,0.131568 0.320212,0.216707 0.406022,0.30453 0.71086,0.633282 0.84643,0.912831 0.0533,0.109906 0.07108,0.179826 0.06704,0.263594 -0.0079,0.163543 -0.109645,0.236176 -0.356632,0.25459 -0.04986,0.0037 -0.109139,0.01172 -0.13173,0.01778 -0.09498,0.02549 -0.238534,0.0931 -0.376857,0.177477 l -0.02133,0.01301 z"
            />
         <path
            style="fill:#1fb854;fill-opacity:1;stroke-width:0.00347893;paint-order:stroke fill markers"
            d="m 28.370981,17.538347 c -0.139499,-0.05141 -0.347386,-0.215214 -0.649567,-0.511809 -0.462604,-0.454053 -0.913389,-1.005667 -1.074664,-1.315036 -0.08376,-0.160685 -0.0846,-0.223159 -0.0047,-0.35465 0.103366,-0.17016 0.417934,-0.480807 0.782881,-0.773125 0.783655,-0.627696 1.717688,-1.175845 2.109812,-1.238169 0.07988,-0.0127 0.28871,-0.0049 0.376887,0.01401 0.375599,0.08069 0.643219,0.299106 0.720852,0.588325 0.01897,0.07068 0.02607,0.205688 0.01456,0.277014 -0.0046,0.02841 -0.02538,0.111903 -0.04623,0.185539 -0.04285,0.151408 -0.04914,0.208673 -0.0229,0.208673 0.02001,0 0.04778,-0.0303 0.157852,-0.172265 0.09949,-0.128317 0.15378,-0.183836 0.20404,-0.208678 0.03772,-0.01864 0.08746,-0.02048 0.121189,-0.0045 0.02963,0.01406 0.100473,0.08918 0.117055,0.124126 0.08197,0.172731 -0.442099,0.934936 -1.184289,1.722441 -0.201054,0.21333 -0.616026,0.634347 -0.805215,0.816946 -0.423089,0.408349 -0.716355,0.65304 -0.779846,0.650673 -0.0072,-2.64e-4 -0.0242,-0.0046 -0.03771,-0.0095 z m -0.343245,-0.955932 c 0.09479,-0.157335 0.244273,-0.89075 0.274256,-1.345636 0.01538,-0.233304 -0.0053,-0.329482 -0.06953,-0.324021 -0.04595,0.0039 -0.06379,0.0498 -0.07715,0.198427 -0.01033,0.114936 -0.02198,0.151783 -0.05936,0.1877 -0.05108,0.04908 -0.08622,0.04893 -0.200599,-8.73e-4 -0.105035,-0.04574 -0.148634,-0.04298 -0.197333,0.01249 -0.02659,0.03028 -0.0464,0.08269 -0.05763,0.152486 -0.01319,0.08195 -0.0051,0.276397 0.01661,0.40159 0.04913,0.282658 0.181445,0.667128 0.255732,0.74311 0.03935,0.04025 0.08105,0.03109 0.115006,-0.02527 z"
            />
         <path
            style="fill:#1fb854;fill-opacity:1;stroke-width:0.00347893;paint-order:stroke fill markers"
            d="m 31.316743,20.442944 c -0.358238,-0.09391 -1.088815,-0.600093 -1.719501,-1.191365 -0.310022,-0.290647 -0.517166,-0.533385 -0.601404,-0.704748 l -0.02736,-0.05566 0.0033,-0.09393 c 0.0049,-0.141183 0.0422,-0.258195 0.149028,-0.468024 0.09117,-0.179076 0.188225,-0.314986 0.353203,-0.494619 0.146095,-0.159073 0.241939,-0.229139 0.313443,-0.229139 0.104976,0 0.187623,0.09033 0.422932,0.462228 0.1786,0.282275 0.2214,0.339062 0.389495,0.516772 0.382963,0.404869 0.99838,0.873793 1.406803,1.071929 0.119678,0.05806 0.178496,0.07832 0.25405,0.0875 0.07217,0.0088 0.102555,0.0024 0.125045,-0.02617 0.03279,-0.04169 0.0041,-0.11097 -0.09962,-0.240812 -0.107897,-0.135026 -0.224594,-0.259477 -0.572075,-0.610084 -0.463668,-0.467838 -0.603862,-0.613791 -0.701751,-0.730576 -0.179564,-0.214225 -0.31911,-0.414484 -0.395661,-0.567801 -0.07121,-0.142613 -0.08013,-0.213827 -0.04112,-0.328194 0.169221,-0.496092 0.968766,-1.432556 1.388796,-1.626622 0.09256,-0.04277 0.136429,-0.03901 0.268906,0.023 0.243477,0.113981 0.684774,0.390802 1.123254,0.704607 0.698459,0.499863 0.888929,0.682793 0.940011,0.902801 0.01272,0.05478 0.01408,0.165118 0.0029,0.234689 -0.03237,0.201358 -0.151804,0.548918 -0.267794,0.77928 -0.213696,0.424412 -0.635461,0.978147 -1.087762,1.428122 -0.476372,0.473923 -1.244293,1.072059 -1.484972,1.156651 -0.04859,0.01708 -0.07749,0.01711 -0.142131,1.68e-4 z m -0.88069,-1.071606 c 0.03138,-0.05971 -0.07608,-0.37654 -0.241892,-0.713181 -0.09668,-0.196289 -0.19202,-0.330112 -0.270999,-0.380387 -0.04266,-0.02716 -0.07179,-0.02621 -0.101285,0.0033 -0.09898,0.09898 -0.02902,0.435125 0.140254,0.673883 0.06026,0.08499 0.174625,0.218444 0.265019,0.309245 0.117321,0.11785 0.185032,0.15258 0.208903,0.107151 z m 1.763622,-1.30094 c 0.04825,-0.03795 0.05108,-0.240712 0.0082,-0.58812 -0.05254,-0.425743 -0.129016,-0.748689 -0.186175,-0.78614 -0.02992,-0.0196 -0.04759,-0.01159 -0.06878,0.03121 -0.04622,0.09334 -0.06417,0.22211 -0.06403,0.459219 1.84e-4,0.302525 0.02543,0.432335 0.128943,0.662928 0.0428,0.09535 0.08437,0.166524 0.119518,0.204659 0.03122,0.03387 0.03774,0.03557 0.06232,0.01624 z"
            />
         <path
            style="fill:#1fb854;fill-opacity:1;stroke-width:0.00347893;paint-order:stroke fill markers"
            d="m 28.216458,22.831379 c -0.01534,-0.0023 -0.0351,-0.02481 -0.101499,-0.115502 -0.162397,-0.221791 -0.341095,-0.481822 -0.499889,-0.727407 l -0.0646,-0.09991 0.04204,-0.04272 c 0.111799,-0.113614 0.233973,-0.358204 0.278527,-0.557605 0.01996,-0.08933 0.02497,-0.194336 0.01086,-0.22787 -0.0093,-0.02218 -0.0142,-0.02609 -0.03255,-0.02609 -0.01187,0 -0.03003,0.0045 -0.04036,0.0099 -0.02792,0.01474 -0.103176,0.09521 -0.166418,0.17794 -0.10596,0.138609 -0.147457,0.174818 -0.184295,0.160812 -0.02396,-0.0091 -0.06468,-0.05688 -0.08795,-0.103202 -0.08218,-0.163531 -0.153523,-0.476697 -0.289725,-1.271756 -0.06052,-0.353258 -0.08768,-0.486137 -0.10389,-0.508312 -0.01083,-0.01481 -0.02701,-0.01004 -0.04164,0.01229 -0.04389,0.06699 -0.06966,0.420588 -0.06568,0.901326 0.0013,0.157858 0.0016,0.287013 6.72e-4,0.287011 -0.003,-5e-6 -0.13016,-0.256446 -0.199949,-0.403279 -0.09499,-0.199859 -0.188359,-0.407209 -0.271134,-0.602135 -0.08618,-0.202931 -0.09261,-0.219707 -0.128376,-0.3348 -0.0156,-0.0502 -0.0469,-0.128478 -0.06954,-0.173947 -0.04148,-0.08328 -0.126121,-0.309524 -0.220205,-0.588623 -0.06287,-0.186508 -0.130707,-0.402186 -0.1274,-0.405062 0.0085,-0.0074 0.182633,-0.09922 0.227032,-0.119712 0.304844,-0.140674 0.551528,-0.21305 0.793223,-0.232729 0.117274,-0.0095 0.164784,-0.0033 0.241757,0.03177 0.219835,0.100182 0.579743,0.370876 0.994559,0.748027 0.192278,0.174819 0.484057,0.474104 1.085483,1.113405 0.45773,0.486555 0.710542,0.75386 0.729892,0.771733 0.01004,0.0093 0.01826,0.01915 0.01826,0.02194 0,0.0028 -0.07593,0.0703 -0.168729,0.150034 -0.345879,0.297164 -0.531663,0.463062 -0.609551,0.544308 -0.162861,0.169884 -0.320102,0.394267 -0.422396,0.602761 -0.06459,0.131654 -0.09397,0.220347 -0.120969,0.365288 -0.04403,0.236329 -0.05699,0.294391 -0.08019,0.359297 -0.04621,0.12929 -0.121187,0.234037 -0.193209,0.269928 -0.03516,0.01752 -0.0756,0.02146 -0.132161,0.01288 z m -0.708827,-2.22676 c 0.02461,-0.02475 0.05912,-0.108531 0.07379,-0.179165 0.02438,-0.117365 0.02034,-0.358414 -0.0082,-0.487051 -0.01871,-0.08444 -0.06296,-0.156551 -0.09608,-0.156551 -0.01695,0 -0.04419,0.0411 -0.05183,0.07821 -0.03022,0.146744 -0.02828,0.562714 0.0032,0.688939 0.01868,0.07484 0.04296,0.09192 0.07906,0.05562 z"
            id="path19387" />
         <path
            style="fill:#1fb854;fill-opacity:1;stroke-width:0.00347893;paint-order:stroke fill markers"
            d="m 36.017873,22.783024 c -0.07021,-0.01102 -0.179502,-0.0361 -0.267878,-0.06148 -0.327018,-0.09391 -1.052347,-0.342523 -1.492461,-0.511546 -1.396071,-0.536152 -1.869278,-0.962562 -1.687093,-1.520252 0.0232,-0.071 0.09532,-0.218619 0.145817,-0.298444 0.08198,-0.129592 0.226325,-0.311077 0.365745,-0.459855 0.124912,-0.133297 0.594597,-0.619482 0.771667,-0.798776 0.143858,-0.145665 0.172862,-0.171958 0.186045,-0.168649 0.0322,0.0081 1.135584,0.471911 1.40927,0.592414 0.151655,0.06677 0.400936,0.189128 0.509746,0.250199 0.255277,0.143279 0.461733,0.294582 0.500704,0.366947 0.01224,0.02273 0.01231,0.02608 0.0013,0.06973 -0.0063,0.02522 -0.01152,0.05975 -0.01152,0.07674 0,0.08082 0.05997,0.189116 0.14218,0.256735 0.103462,0.0851 0.224407,0.136822 0.253027,0.108203 0.0203,-0.0203 0.0036,-0.0754 -0.06582,-0.217071 -0.03312,-0.06759 -0.03715,-0.08066 -0.03715,-0.1203 0,-0.08853 0.04213,-0.127825 0.142471,-0.132894 0.165196,-0.0083 0.297196,0.07964 0.375245,0.250117 0.04704,0.102742 0.05985,0.179944 0.05965,0.359461 -1.64e-4,0.148493 -0.01115,0.236767 -0.048,0.385853 -0.07129,0.288384 -0.181867,0.552168 -0.369005,0.880302 -0.311598,0.546365 -0.485369,0.699901 -0.788013,0.696251 -0.04321,-5.29e-4 -0.0864,-0.0022 -0.09596,-0.0037 z m -1.444085,-1.010915 c 0.03237,-0.03041 0.03986,-0.09284 0.0209,-0.174255 -0.02462,-0.105742 -0.08097,-0.22541 -0.199339,-0.423348 -0.09512,-0.159061 -0.163093,-0.298024 -0.199678,-0.408228 -0.03743,-0.112753 -0.04947,-0.176962 -0.04947,-0.26392 0,-0.0872 0.0099,-0.118779 0.05784,-0.183777 0.02184,-0.02964 0.03261,-0.05118 0.03261,-0.06522 v -0.02097 l -0.03653,0.0031 c -0.07017,0.0059 -0.219493,0.09467 -0.307921,0.18303 -0.05404,0.054 -0.0879,0.111159 -0.104705,0.176751 l -0.01101,0.04298 0.05624,0.128577 c 0.06308,0.144216 0.104183,0.245825 0.174042,0.4302 0.08775,0.231588 0.12584,0.307857 0.200985,0.402419 0.06725,0.08463 0.157864,0.157351 0.22883,0.183652 0.01557,0.0058 0.04513,0.0089 0.07283,0.0077 0.03795,-0.0016 0.04993,-0.0051 0.06437,-0.01867 z"
            />
         <path
            style="fill:#1fb854;fill-opacity:1;stroke-width:0.00347893;paint-order:stroke fill markers"
            d="m 37.176357,19.85893 c -0.287079,-0.07492 -0.666401,-0.270114 -1.346172,-0.692735 -0.663684,-0.41262 -0.928195,-0.59717 -1.096631,-0.765126 -0.09122,-0.09096 -0.132374,-0.150892 -0.152878,-0.222641 -0.02212,-0.07739 -0.0017,-0.172852 0.05854,-0.274321 0.09284,-0.156271 0.421567,-0.517235 0.541985,-0.595133 0.151761,-0.09817 0.313648,-0.102851 0.610545,-0.01764 0.221741,0.06364 0.76008,0.260727 1.04406,0.382234 0.216039,0.09244 0.50742,0.245355 0.65356,0.342992 0.13205,0.08822 0.249625,0.192672 0.277356,0.246394 0.01357,0.02629 0.01515,0.106936 0.0047,0.239382 -0.0037,0.04743 -0.01789,0.250623 -0.03143,0.451532 -0.01353,0.200908 -0.02941,0.407054 -0.03529,0.458102 -0.02782,0.241717 -0.09908,0.38246 -0.223463,0.441343 -0.04502,0.02131 -0.05199,0.02253 -0.13787,0.02402 -0.08024,0.0014 -0.0991,-6.88e-4 -0.166989,-0.0184 z m -1.379141,-1.279115 c 0.02947,-0.02667 0.03471,-0.04946 0.03825,-0.166303 0.0034,-0.11117 0.0032,-0.113071 -0.01435,-0.142987 -0.04194,-0.07157 -0.140102,-0.134603 -0.258985,-0.166304 -0.109079,-0.02909 -0.412491,-0.0251 -0.476614,0.0063 -0.01912,0.0093 -0.02481,0.01665 -0.02649,0.03396 -0.0018,0.01877 0.0033,0.02733 0.03479,0.05765 0.04715,0.04547 0.12734,0.102499 0.286656,0.203882 0.278145,0.177 0.37062,0.215574 0.416742,0.173834 z"
            />
         <path
            style="fill:#1fb854;fill-opacity:1;stroke-width:0.00347893;paint-order:stroke fill markers"
            d="m 39.549646,20.919614 c -0.340712,-0.04287 -0.705898,-0.110049 -0.841117,-0.154739 -0.206793,-0.06835 -0.408512,-0.262729 -0.522443,-0.503442 -0.196646,-0.415475 -0.152611,-0.924855 0.112436,-1.300609 0.09528,-0.135072 0.219844,-0.238585 0.387691,-0.322162 0.392277,-0.195327 0.935718,-0.301368 1.475067,-0.287826 0.225333,0.0057 0.371467,0.02652 0.521971,0.07454 0.161525,0.05153 0.271635,0.127146 0.311853,0.214168 0.01292,0.02795 0.01501,0.04479 0.01484,0.119506 -1.6e-4,0.07141 -0.0036,0.10067 -0.01941,0.16351 -0.03658,0.145676 -0.115361,0.318262 -0.224008,0.490707 -0.188901,0.299826 -0.25159,0.419152 -0.329596,0.627374 -0.06579,0.175622 -0.09856,0.318093 -0.112071,0.487332 -0.0041,0.05077 -0.01231,0.115788 -0.01834,0.144489 -0.02757,0.131146 -0.102968,0.204506 -0.251714,0.244918 -0.04558,0.01238 -0.07738,0.01486 -0.213582,0.01667 -0.135776,0.0018 -0.179968,-3.97e-4 -0.291573,-0.01443 z m -0.382081,-0.865312 c 0.03628,-0.05403 0.06074,-0.151858 0.07205,-0.288166 0.02011,-0.24237 -0.04211,-0.506124 -0.119402,-0.506124 -0.02443,0 -0.03503,0.01995 -0.05104,0.09608 -0.03547,0.16862 -0.03017,0.545275 0.0095,0.675458 0.01677,0.05502 0.05981,0.06603 0.08888,0.02275 z"
            />
         <path
            style="fill:#1fb854;fill-opacity:1;stroke-width:0.00347893;paint-order:stroke fill markers"
            d="M 39.375042,23.84805 C 38.546064,23.7781 38.043839,23.68504 37.642534,23.527015 37.20929,23.356414 36.971167,23.12772 36.935488,22.847969 c -0.0074,-0.05827 -0.004,-0.140282 0.0091,-0.220351 0.01642,-0.09986 0.08898,-0.262069 0.160291,-0.35833 0.04692,-0.06334 0.201362,-0.217324 0.276698,-0.275878 0.307549,-0.239037 0.746269,-0.424977 1.195518,-0.506691 0.177185,-0.03223 0.244417,-0.03704 0.461688,-0.03306 0.185776,0.0034 0.202844,0.0048 0.297954,0.02492 0.243785,0.05148 0.460477,0.130262 0.578238,0.210232 0.146415,0.09943 0.222418,0.254141 0.252694,0.514383 0.01754,0.150811 0.02707,0.477678 0.02251,0.772323 -0.0055,0.352707 -0.01584,0.479417 -0.05,0.61028 -0.04219,0.161602 -0.117039,0.237979 -0.257814,0.263064 -0.07091,0.01263 -0.353388,0.01219 -0.507362,-7.94e-4 z m -0.815987,-0.497016 c 0.03139,-0.03876 9e-4,-0.121643 -0.08979,-0.244208 -0.07433,-0.100439 -0.305577,-0.330529 -0.388384,-0.386438 -0.185533,-0.125268 -0.316946,-0.148246 -0.36321,-0.06351 -0.02021,0.03702 -0.01666,0.134953 0.0071,0.195899 0.02491,0.0639 0.07328,0.135127 0.130834,0.192683 0.07736,0.07736 0.270132,0.197219 0.436797,0.271588 0.09595,0.04281 0.143675,0.05511 0.20505,0.05281 0.04117,-0.0015 0.04972,-0.0042 0.06161,-0.01883 z"
            />
         <path
            style="fill:#1fb854;fill-opacity:1;stroke-width:0.00347893;paint-order:stroke fill markers"
            d="m 43.201866,20.412051 c -0.247291,-0.04889 -0.564581,-0.14381 -0.889523,-0.266104 -0.509296,-0.191676 -0.855863,-0.375058 -0.905166,-0.478957 -0.01072,-0.0226 -0.01077,-0.02784 -6.62e-4,-0.06735 0.04992,-0.19486 0.287295,-0.433309 0.678604,-0.681679 0.446898,-0.283653 1.026895,-0.508075 1.419234,-0.549156 0.115021,-0.01204 0.605946,-0.0044 0.695956,0.01082 0.177888,0.0301 0.278021,0.08576 0.30012,0.166831 0.01003,0.03678 0.0031,0.133304 -0.01378,0.191711 -0.03101,0.107338 -0.12271,0.293812 -0.273739,0.556629 -0.279782,0.486867 -0.49034,0.784693 -0.711318,1.006132 -0.130223,0.130496 -0.155091,0.139714 -0.299734,0.111117 z"
            />
         <path
            style="fill:#1fb854;fill-opacity:1;stroke-width:0.00347893;paint-order:stroke fill markers"
            d="m 41.715725,24.1516 c -0.256419,-0.02509 -0.490238,-0.124006 -0.637337,-0.269626 -0.181864,-0.180035 -0.290099,-0.444221 -0.332886,-0.812532 -0.02223,-0.191358 -0.0239,-0.585429 -0.0035,-0.834944 0.01365,-0.167218 0.07343,-0.694085 0.185812,-1.637638 l 0.0044,-0.03733 0.032,0.0043 c 0.0643,0.0087 1.156126,0.214514 1.52098,0.286653 0.392181,0.07754 0.79796,0.172899 0.872854,0.205117 0.02415,0.01039 0.0366,0.02025 0.03934,0.03117 0.01476,0.0588 -0.06997,0.544825 -0.196314,1.12611 -0.154561,0.71111 -0.370926,1.584217 -0.413046,1.666779 -0.05553,0.108853 -0.312809,0.225684 -0.576589,0.261833 -0.08754,0.012 -0.409212,0.01853 -0.495726,0.01006 z m 0.626845,-0.559854 c 0.204156,-0.01353 0.246295,-0.01792 0.239064,-0.02488 -0.0033,-0.0032 -0.120258,-0.0281 -0.259937,-0.0554 -0.409247,-0.08001 -0.457824,-0.09285 -0.574024,-0.151714 -0.106653,-0.05403 -0.203595,-0.134955 -0.264412,-0.220725 -0.06062,-0.08549 -0.07788,-0.137571 -0.08695,-0.262359 -0.01247,-0.171517 -0.04817,-0.252206 -0.11159,-0.252206 -0.03456,0 -0.05975,0.01859 -0.08762,0.06464 -0.03027,0.05003 -0.04433,0.112157 -0.04433,0.195929 0,0.225827 0.04989,0.388163 0.151403,0.492683 0.105967,0.109101 0.275235,0.19102 0.45741,0.221366 0.06883,0.01147 0.351197,0.0079 0.580981,-0.0073 z"
            />
         <path
            style="fill:#1fb854;fill-opacity:1;stroke-width:0.0037283;paint-order:stroke fill markers"
            d="M 45.082589,24.15332 C 44.585848,24.14762 44.42218,24.13364 44.155117,24.0743 43.782985,23.99161 43.5909,23.82444 43.535084,23.534674 c -0.04136,-0.214742 -0.0072,-0.591692 0.09343,-1.029882 0.213204,-0.92867 0.961232,-2.931794 1.296525,-3.471931 0.05143,-0.08284 0.107926,-0.143631 0.133501,-0.143631 0.0099,0 0.03816,0.01011 0.06289,0.02246 0.283892,0.141863 0.718242,1.004084 0.92588,1.837951 0.06407,0.257306 0.08331,0.394345 0.101524,0.723287 0.02375,0.428831 0.072,0.738145 0.182626,1.170681 0.0802,0.313594 0.119993,0.422896 0.389532,1.070018 0.09822,0.235814 0.180324,0.432948 0.182452,0.438074 0.0031,0.0074 -0.140041,0.009 -0.70344,0.0078 -0.389019,-8.2e-4 -0.891858,-0.0036 -1.117419,-0.0062 z m -0.08924,-0.525063 c 0.02272,-0.0095 0.02586,-0.01407 0.02586,-0.03765 0,-0.01477 -0.0047,-0.03591 -0.01042,-0.04698 -0.01906,-0.03685 -0.09712,-0.10318 -0.207162,-0.176026 -0.168916,-0.111819 -0.246873,-0.184329 -0.344537,-0.320462 -0.106974,-0.14911 -0.144869,-0.250275 -0.171618,-0.45816 -0.02069,-0.16075 -0.03269,-0.197413 -0.06589,-0.201236 -0.03733,-0.0043 -0.08735,0.07216 -0.11352,0.173554 -0.01344,0.05207 -0.01541,0.195456 -0.0036,0.261772 0.02144,0.120322 0.07573,0.253672 0.146676,0.360282 0.05436,0.08169 0.213886,0.241986 0.304018,0.305485 0.162462,0.114456 0.354421,0.17526 0.440177,0.139428 z"
            />
         <path
            style="fill:#1fb854;fill-opacity:1;stroke-width:0.0037283;paint-order:stroke fill markers"
            d="m 47.959991,24.115901 c -0.118078,-0.01541 -0.203681,-0.0587 -0.294003,-0.148684 -0.140283,-0.139761 -0.433113,-0.570762 -0.554786,-0.81656 -0.144088,-0.291082 -0.160381,-0.481745 -0.05859,-0.685693 0.116692,-0.233813 0.412654,-0.456164 0.982784,-0.738348 0.782416,-0.387254 2.215724,-0.958377 2.404744,-0.958206 0.02297,2.1e-5 0.02757,0.0034 0.0384,0.02791 0.0068,0.01534 0.06919,0.145327 0.138719,0.288866 0.141266,0.291624 0.142721,0.294711 0.681565,1.445699 0.212892,0.454743 0.386122,0.827754 0.384958,0.828914 -0.0098,0.0098 -1.283425,0.295781 -2.384494,0.535467 -0.780254,0.16985 -0.95558,0.203216 -1.159497,0.220663 -0.09953,0.0085 -0.114332,0.0085 -0.179792,-3e-5 z M 49.14642,23.63862 c 0.07552,-0.0089 0.145849,-0.03214 0.167645,-0.05535 0.02273,-0.0242 0.02181,-0.05474 -0.0023,-0.07546 -0.04492,-0.03864 -0.22213,-0.09098 -0.488004,-0.144149 -0.298486,-0.05969 -0.337496,-0.06388 -0.594519,-0.06388 -0.225105,0 -0.232123,4.5e-4 -0.268165,0.01706 -0.06764,0.03118 -0.08671,0.06046 -0.06676,0.102497 0.03133,0.06603 0.178425,0.129534 0.405168,0.174929 0.127406,0.02551 0.259655,0.04344 0.384608,0.05216 0.102847,0.0072 0.374358,0.0026 0.462308,-0.0078 z"
            />
         <path
            style="fill:#1fb854;fill-opacity:1;stroke-width:0.0037283;paint-order:stroke fill markers"
            d="m 52.333559,23.109814 c -0.01466,-0.0077 -0.03856,-0.02727 -0.05312,-0.04339 -0.02143,-0.02372 -0.02815,-0.03908 -0.03531,-0.08066 -0.02008,-0.11678 -0.09543,-0.305285 -0.227645,-0.56955 -0.171132,-0.342058 -0.317061,-0.594442 -0.663968,-1.148349 -0.173113,-0.276408 -0.331921,-0.546314 -0.38389,-0.65245 -0.109316,-0.223254 -0.128899,-0.350661 -0.07214,-0.469334 0.03657,-0.07647 0.08093,-0.131018 0.201922,-0.248351 0.134127,-0.130068 0.239074,-0.218609 0.338906,-0.285926 0.09475,-0.06389 0.130855,-0.08246 0.219195,-0.112719 0.06267,-0.02147 0.07695,-0.02357 0.158355,-0.02329 0.126204,4.23e-4 0.238689,0.02745 0.421296,0.101186 0.252217,0.101849 0.438354,0.216361 0.55304,0.340231 0.06955,0.07512 0.09748,0.131082 0.101685,0.203761 0.0033,0.05753 0.0032,0.05802 -0.0389,0.146332 -0.04789,0.10046 -0.05676,0.134894 -0.03861,0.149955 0.02127,0.01765 0.07239,0.0044 0.18142,-0.047 0.058,-0.02735 0.124941,-0.05339 0.148764,-0.05786 0.0519,-0.0098 0.178491,-0.0032 0.249616,0.01301 0.07062,0.01605 0.21204,0.08838 0.309475,0.15828 0.04581,0.03287 0.118944,0.08368 0.162515,0.11291 l 0.07922,0.05315 -0.06497,0.124506 c -0.226941,0.434883 -0.488873,0.88192 -0.757391,1.292645 l -0.08121,0.124218 -0.05373,-0.01692 c -0.240422,-0.07569 -0.373746,-0.142046 -0.557684,-0.277589 -0.118959,-0.08766 -0.163086,-0.115344 -0.179898,-0.112865 -0.0088,0.0013 -0.01714,0.0061 -0.01868,0.01078 -0.0041,0.01243 0.08948,0.148524 0.181314,0.26373 0.139851,0.175448 0.242279,0.263429 0.389451,0.334522 0.03416,0.0165 0.06574,0.03121 0.07017,0.03269 0.0091,0.003 -0.138535,0.212142 -0.322484,0.456739 -0.165619,0.220222 -0.182013,0.241474 -0.186352,0.241585 -0.0021,5.2e-5 -0.01572,-0.0062 -0.03037,-0.01399 z"
            />
         <path
            style="fill:#1fb854;fill-opacity:1;stroke-width:0.0037283;paint-order:stroke fill markers"
            d="m 47.330745,21.230429 c -0.163124,-0.01558 -0.296194,-0.08583 -0.342062,-0.180583 -0.0085,-0.01755 -0.02244,-0.07382 -0.03099,-0.125046 -0.02651,-0.158825 -0.058,-0.245414 -0.168581,-0.463435 -0.11855,-0.233738 -0.265669,-0.470643 -0.488729,-0.786997 -0.326479,-0.463028 -0.537836,-0.848275 -0.630246,-1.148772 -0.01818,-0.05912 -0.02006,-0.07646 -0.02044,-0.188156 -4.23e-4,-0.125872 0.009,-0.191868 0.02997,-0.209247 0.02943,-0.02442 0.0881,0.02599 0.228329,0.196191 0.212381,0.257764 0.334026,0.38578 0.445932,0.469284 0.09654,0.07204 0.176876,0.104407 0.217429,0.08761 0.04005,-0.01659 0.04615,-0.05501 0.02139,-0.134805 -0.02342,-0.07548 -0.08197,-0.162268 -0.27587,-0.408897 -0.07627,-0.09702 -0.117503,-0.169643 -0.12425,-0.218864 -0.0137,-0.09995 0.09541,-0.181048 0.411098,-0.305567 0.172629,-0.06809 2.038813,-0.698583 2.067724,-0.698583 0.0096,0 0.0577,0.0415 0.44514,0.383682 0.558109,0.492917 0.981532,0.872876 1.153993,1.035537 0.297983,0.281049 0.430308,0.475193 0.430308,0.631338 0,0.09219 -0.05328,0.216802 -0.162933,0.381098 -0.104742,0.156934 -0.189955,0.252706 -0.362321,0.407219 -0.458448,0.410962 -1.013729,0.753411 -1.629475,1.004919 -0.486383,0.198669 -0.934274,0.29893 -1.215421,0.272074 z m 0.611439,-0.660584 c 0.348543,-0.04567 0.716677,-0.161305 0.898315,-0.282164 0.103622,-0.06895 0.129625,-0.108362 0.108369,-0.164268 -0.02027,-0.05331 -0.16082,-0.05953 -0.372875,-0.0165 -0.07177,0.01456 -0.164045,0.02872 -0.205056,0.03146 -0.21633,0.01444 -0.513429,-0.05627 -0.703962,-0.167543 -0.02801,-0.01636 -0.117529,-0.07896 -0.198939,-0.139113 -0.188864,-0.139555 -0.219701,-0.159815 -0.246146,-0.16172 -0.0396,-0.0029 -0.03198,0.0113 0.111608,0.207226 0.205437,0.28033 0.267651,0.399769 0.278199,0.534086 0.0041,0.0524 0.0028,0.06016 -0.01678,0.09883 -0.01987,0.03924 -0.02044,0.04277 -0.0088,0.05445 0.0069,0.0069 0.02687,0.01499 0.04445,0.01805 0.04362,0.0076 0.207373,8.73e-4 0.311583,-0.01278 z"
            />
         <path
            style="fill:#1fb854;fill-opacity:1;stroke-width:0.0037283;paint-order:stroke fill markers"
            d="m 54.090014,19.976778 c -0.47892,-0.295033 -0.779098,-0.522087 -0.779098,-0.589308 0,-0.04003 0.06172,-0.113877 0.145402,-0.17396 0.105878,-0.07602 0.226587,-0.133373 0.454851,-0.216114 0.08202,-0.02973 0.182686,-0.06828 0.223697,-0.08567 0.09834,-0.04169 0.459343,-0.222003 0.580646,-0.290015 0.05278,-0.02959 0.09734,-0.05244 0.09901,-0.05077 0.0045,0.0045 -0.130038,0.383211 -0.215077,0.605366 -0.112938,0.295037 -0.350147,0.857912 -0.369851,0.877615 -0.003,0.003 -0.06582,-0.0317 -0.139575,-0.07714 z"
            />
         <path
            style="fill:#1fb854;fill-opacity:1;stroke-width:0.0037283;paint-order:stroke fill markers"
            d="m 41.382946,28.909298 c -0.126691,-0.01836 -0.267351,-0.124579 -0.370804,-0.27998 -0.177377,-0.26644 -0.292051,-0.688321 -0.34404,-1.2657 -0.01619,-0.179771 -0.02209,-0.639842 -0.01181,-0.920885 0.01262,-0.345128 0.06691,-1.393428 0.07981,-1.54106 l 0.0047,-0.05347 0.0346,-0.0043 c 0.05874,-0.0073 0.856456,-0.04701 1.510999,-0.07514 0.922378,-0.03965 1.347371,-0.01074 1.573336,0.107002 0.06052,0.03154 0.142195,0.10793 0.168609,0.157706 0.01685,0.03176 0.01779,0.04054 0.01751,0.164044 -2.91e-4,0.127651 -8.2e-4,0.132112 -0.02515,0.205058 -0.09522,0.285565 -0.298616,0.647276 -0.717005,1.275072 -0.418288,0.627647 -0.852757,1.218292 -1.205436,1.63875 -0.213488,0.254516 -0.490336,0.530637 -0.579267,0.577744 -0.02979,0.01577 -0.08752,0.02223 -0.13603,0.01519 z m 0.09727,-0.826474 c 0.01052,-0.01249 0.02426,-0.04004 0.03055,-0.06119 0.0416,-0.140097 0.09333,-0.789758 0.07846,-0.985565 -0.01793,-0.236263 -0.06513,-0.363649 -0.162153,-0.437626 -0.06405,-0.04884 -0.185044,-0.06443 -0.306102,-0.03945 -0.112029,0.02312 -0.173785,0.06641 -0.219437,0.153831 l -0.02445,0.04682 7.2e-5,0.119303 c 8.2e-5,0.134686 0.0092,0.186708 0.05567,0.316905 0.05744,0.16098 0.165268,0.389244 0.283762,0.60067 0.10724,0.191349 0.160516,0.268317 0.204132,0.294915 0.03091,0.01884 0.03715,0.01794 0.0595,-0.0086 z m 0.775454,-2.612985 c 0.03233,-0.0058 0.07763,-0.0199 0.100664,-0.03143 0.04079,-0.0204 0.04194,-0.02183 0.04409,-0.05466 0.0019,-0.02873 -8.73e-4,-0.03662 -0.01864,-0.05353 -0.05754,-0.05473 -0.153771,-0.07782 -0.293582,-0.07045 -0.21511,0.01135 -0.411421,0.119669 -0.318867,0.175954 0.0211,0.01283 0.115264,0.03324 0.185222,0.04014 0.07102,0.007 0.247808,0.0035 0.301115,-0.006 z"
            />
         <path
            style="fill:#1fb854;fill-opacity:1;stroke-width:0.0037283;paint-order:stroke fill markers"
            d="m 42.748959,28.752866 c 0.0084,-0.02729 0.129682,-0.264483 0.216618,-0.423622 0.539345,-0.987285 1.398759,-2.359107 1.769433,-2.824424 0.124225,-0.155941 0.257164,-0.274757 0.372281,-0.33273 0.107165,-0.05397 0.191476,-0.06161 0.272155,-0.02469 0.142585,0.06528 0.212836,0.227635 0.23622,0.545934 0.01341,0.18257 0.02656,0.233087 0.100886,0.387741 0.104806,0.218062 0.278969,0.457833 0.476996,0.65668 0.05745,0.05769 0.254392,0.239678 0.437639,0.404416 0.183248,0.164735 0.335057,0.302562 0.337355,0.306279 0.0045,0.0073 -0.03458,0.02694 -0.249235,0.125479 -0.641999,0.294714 -1.368508,0.565745 -2.045507,0.763095 -0.08245,0.02405 -0.151231,0.04238 -0.152844,0.04077 -0.0085,-0.0085 -0.05653,-0.193543 -0.07556,-0.290902 -0.0361,-0.184753 -0.04101,-0.235326 -0.04118,-0.425024 l -1.69e-4,-0.178959 0.02866,-0.111847 c 0.03514,-0.137147 0.04169,-0.187936 0.02509,-0.19431 -0.03561,-0.01365 -0.115119,0.05722 -0.239509,0.213535 -0.122686,0.154178 -0.183168,0.252073 -0.257443,0.416692 -0.112725,0.249841 -0.162667,0.43801 -0.169777,0.639686 l -0.0043,0.121163 -0.02692,0.0071 c -0.115525,0.03032 -0.614653,0.128707 -0.850869,0.167714 -0.06357,0.0105 -0.126773,0.02098 -0.140458,0.02328 -0.02325,0.0039 -0.02454,0.0031 -0.01958,-0.01304 z"
            />
         <path
            style="fill:#1fb854;fill-opacity:1;stroke-width:0.0037283;paint-order:stroke fill markers"
            d="m 47.382531,26.983922 c -0.624608,-0.588261 -0.973554,-0.986673 -1.110742,-1.268206 -0.05777,-0.118554 -0.06925,-0.159192 -0.07269,-0.257251 l -0.003,-0.08575 0.03004,-0.05965 c 0.01706,-0.03387 0.04392,-0.07295 0.06215,-0.09042 0.163446,-0.156654 0.489241,-0.243537 1.105848,-0.294908 0.172247,-0.01435 0.605329,-0.01212 0.764299,0.0039 0.315578,0.03188 0.552761,0.0992 0.636692,0.180708 0.03249,0.03155 0.07276,0.111014 0.09038,0.178308 0.03845,0.146915 0.05601,0.496208 0.04154,0.826577 -0.005,0.114226 -0.01083,0.212199 -0.01294,0.217715 -0.0077,0.02019 -0.494422,0.331639 -0.796679,0.509842 l -0.141674,0.08353 -0.02591,-0.03216 c -0.109878,-0.13638 -0.412021,-0.410279 -0.943441,-0.85525 -0.174841,-0.146399 -0.1976,-0.163756 -0.1976,-0.150701 0,0.0075 0.325908,0.395036 0.561873,0.668036 0.07442,0.0861 0.203401,0.225835 0.286614,0.310512 l 0.151297,0.153956 -0.121881,0.06642 -0.121881,0.06642 z"
            />
         <path
            style="fill:#1fb854;fill-opacity:1;stroke-width:0.0037283;paint-order:stroke fill markers"
            d="m 49.400839,25.978561 c 0.0014,-0.0092 0.01122,-0.08053 0.02182,-0.158451 0.08736,-0.642593 0.25641,-1.091999 0.477558,-1.269559 0.100672,-0.08083 0.2088,-0.1163 0.305622,-0.100256 0.02727,0.0045 0.0557,0.01375 0.06317,0.02051 0.05241,0.04743 0.02303,0.118733 -0.14577,0.35385 -0.103911,0.144732 -0.171462,0.340262 -0.208659,0.60398 -0.0061,0.04306 -0.0111,0.102185 -0.01118,0.131384 l -1.37e-4,0.05309 -0.118614,0.09323 c -0.143345,0.112668 -0.376582,0.288999 -0.382264,0.288999 -0.0022,0 -0.0029,-0.0075 -0.0015,-0.01677 z"
            />
         <path
            style="fill:#1fb854;fill-opacity:1;stroke-width:0.0037283;paint-order:stroke fill markers"
            d="m 39.259007,28.381002 c -0.202927,-0.0074 -0.35178,-0.02798 -0.618895,-0.08539 -1.047861,-0.2252 -2.459275,-0.844214 -3.034825,-1.331005 -0.159403,-0.134819 -0.240131,-0.230495 -0.265803,-0.315013 -0.01423,-0.04685 -0.01546,-0.06409 -0.01175,-0.165008 0.0232,-0.631713 0.505215,-2.198562 0.739691,-2.404435 0.0344,-0.03021 0.06588,-0.03395 0.241965,-0.02878 0.320736,0.0094 0.935405,0.100533 1.640992,0.243253 0.764453,0.154627 2.013716,0.432076 2.190368,0.48646 0.03987,0.01227 0.0466,0.01688 0.0466,0.03186 0,0.0096 0.0033,0.07577 0.0073,0.146968 0.01518,0.267375 0.03669,0.774301 0.08585,2.023423 0.03341,0.848841 0.05532,1.367496 0.05868,1.388785 l 0.0026,0.01677 -0.466866,-0.0013 c -0.256776,-7.93e-4 -0.533975,-0.0037 -0.615997,-0.0067 z m -0.548058,-0.639919 c 0.02721,-0.0074 0.04654,-0.04897 0.04147,-0.0892 -0.01225,-0.09712 -0.102504,-0.192699 -0.328544,-0.347925 -0.187548,-0.128796 -0.347426,-0.290459 -0.505093,-0.51073 -0.143829,-0.200941 -0.225644,-0.348867 -0.428926,-0.775523 -0.148448,-0.311571 -0.195666,-0.400563 -0.272391,-0.513384 -0.0882,-0.129694 -0.163593,-0.202449 -0.209798,-0.202449 -0.0343,0 -0.05341,0.0173 -0.07216,0.06531 -0.02335,0.05981 -0.02356,0.217038 -4.24e-4,0.326623 0.06329,0.299855 0.277476,0.766789 0.526563,1.147913 0.280469,0.429138 0.521189,0.660366 0.850386,0.816843 0.09416,0.04476 0.161754,0.06909 0.223697,0.08052 0.04375,0.0081 0.148469,0.0093 0.175229,0.0021 z m -1.683331,-0.661035 c 0.02707,-0.02508 0.03182,-0.0456 0.03107,-0.133998 -0.0015,-0.179591 -0.08003,-0.440243 -0.215584,-0.71583 -0.136046,-0.27658 -0.283007,-0.436203 -0.404172,-0.439 -0.08839,-0.0021 -0.08287,0.03007 0.05951,0.345792 0.03051,0.06767 0.09842,0.23041 0.150905,0.361646 0.145923,0.364876 0.214667,0.499568 0.290775,0.569722 0.03839,0.03538 0.05897,0.03813 0.08751,0.01167 z m -1.039981,-0.669099 c 0.05019,-0.05343 0.06825,-0.148839 0.07387,-0.390322 0.0065,-0.279294 -0.01204,-0.438107 -0.06296,-0.539414 -0.02729,-0.05429 -0.04203,-0.06251 -0.06493,-0.03618 -0.02496,0.0287 -0.04113,0.10918 -0.04988,0.248311 -0.01086,0.172681 0.0032,0.58057 0.02311,0.669071 0.01402,0.06239 0.04839,0.08303 0.0808,0.04853 z"
            />
         <path
            style="fill:#1fb854;fill-opacity:1;stroke-width:0.0037283;paint-order:stroke fill markers"
            d="M 34.52059,26.378818 C 33.723583,26.266523 31.633656,25.327572 30.620167,24.62646 30.463563,24.518125 30.369862,24.44419 30.237072,24.324179 30.097189,24.197757 29.753956,23.850381 29.65665,23.73675 29.48031,23.530826 29.342106,23.2683 29.297078,23.053721 c -0.06046,-0.288128 -0.0069,-0.581629 0.170904,-0.9358 0.249814,-0.497722 0.559201,-0.799871 0.913978,-0.892595 0.199209,-0.05206 0.495846,-0.0189 0.778523,0.08703 0.212925,0.07979 0.328685,0.139291 0.693238,0.356302 0.827561,0.492631 1.55487,0.869486 2.62536,1.36033 0.205201,0.09409 0.473757,0.220598 0.59679,0.28113 0.308726,0.151891 0.421713,0.221533 0.49915,0.307662 0.04921,0.05473 0.05947,0.07709 0.05943,0.129404 -6e-5,0.06948 -0.03901,0.134184 -0.170572,0.28335 -0.15125,0.171492 -0.255845,0.379592 -0.339416,0.675296 -0.05909,0.209078 -0.07736,0.344136 -0.100788,0.745181 -0.0063,0.10868 -0.01658,0.249607 -0.02273,0.313176 -0.03394,0.35084 -0.09837,0.563489 -0.184579,0.60918 -0.03266,0.0173 -0.190918,0.02024 -0.29578,0.0054 z m -1.46545,-0.890704 c 0.137854,-0.02727 0.10042,-0.124415 -0.168022,-0.436031 -0.316081,-0.366918 -0.567772,-0.818355 -0.729604,-1.308629 -0.02098,-0.06357 -0.08133,-0.257456 -0.1341,-0.430863 -0.05277,-0.173407 -0.09808,-0.317412 -0.100675,-0.320011 -0.01837,-0.01837 -0.02494,0.05814 -0.03536,0.4116 -0.01005,0.341064 -0.0025,0.659652 0.01921,0.806507 0.0528,0.357709 0.15508,0.686561 0.263069,0.845791 0.143119,0.211029 0.379431,0.393755 0.564139,0.43621 0.05056,0.01162 0.254121,0.0087 0.321342,-0.0046 z m -1.59356,-1.135265 c 0.02604,-0.02772 0.03406,-0.08595 0.02845,-0.20674 -0.01354,-0.291974 -0.0761,-0.740889 -0.153999,-1.105086 -0.07325,-0.342472 -0.166017,-0.564369 -0.250737,-0.599767 -0.05277,-0.02205 -0.10277,0.02432 -0.125713,0.116603 -0.01681,0.06761 -0.02281,0.291993 -0.01119,0.418645 0.02393,0.260886 0.08293,0.493055 0.216717,0.852701 0.098,0.263443 0.195238,0.468494 0.246648,0.520095 0.02478,0.02488 0.02947,0.02521 0.04982,0.0035 z m -0.762028,-0.461024 c 0.06073,-0.0671 -0.04154,-0.430435 -0.173503,-0.616379 -0.03695,-0.05206 -0.09433,-0.09105 -0.134197,-0.09117 -0.03056,-9e-5 -0.06561,0.02924 -0.07818,0.06542 -0.01622,0.0467 -0.01236,0.160872 0.0076,0.225317 0.03593,0.115858 0.114149,0.246143 0.205472,0.342229 0.08002,0.08419 0.140467,0.110284 0.172779,0.07458 z"
            />
         <path
            style="fill:#1fb854;fill-opacity:1;stroke-width:0.0037283;paint-order:stroke fill markers"
            d="m 37.085417,28.588895 c -0.407149,-0.09412 -0.88794,-0.223289 -1.231698,-0.330914 -1.372162,-0.429604 -2.708138,-1.06784 -3.898423,-1.862397 -0.204221,-0.136326 -0.441842,-0.303892 -0.437333,-0.308401 0.0019,-0.0019 0.01964,0.0048 0.03953,0.0149 0.01989,0.01006 0.16199,0.07272 0.315782,0.139282 0.693548,0.300152 1.692203,0.753081 2.647082,1.200555 0.992963,0.465317 1.285678,0.599059 1.688914,0.771668 0.311115,0.133175 0.516101,0.216212 0.794124,0.321686 0.18284,0.06936 0.200742,0.08107 0.08202,0.05362 z"
            />
      </g>
    </g>
  </g>
</svg>
